# xmcd CD database file
#
# Track frame offsets:
#	150
#	13235
#	24732
#	36225
#	45690
#	57550
#	66837
#	78537
#	90767
#	101552
#
# Disc length: 1502 seconds
#
# Revision: 2
# Processed by: cddbd v1.5PL3 Copyright (c) Steve Scherf et al.
# Submitted via: CDex 1.51
#
DISCID=7f05dc0a
DTITLE=Lester Flatt and Earl Scruggs - Columbia Historic Edition
DYEAR=1982
DGENRE=Bluegrass
TTITLE0=I'll Go Stepping Too
TTITLE1=Dear Old Dixie
TTITLE2=No Doubt About It
TTITLE3=You Put Me On My Feet
TTITLE4=Before I Met You
TTITLE5=Foggy Mountain Special
TTITLE6=Till The End Of The World Rolls 'Round
TTITLE7=What's Good About It
TTITLE8=Who Knows Right From Wrong
TTITLE9=Cabin On The Hill
EXTD=YEAR: 1982
EXTT0=
EXTT1=
EXTT2=
EXTT3=
EXTT4=
EXTT5=
EXTT6=
EXTT7=
EXTT8=
EXTT9=
PLAYORDER=
